<svg width="current" height="current" viewBox="0 0 157 152" fill="none" xmlns="http://www.w3.org/2000/svg">
<g id="table">
<rect id="table 4" x="89.5" y="88.5" width="67" height="63" fill="#D9D9D9" stroke="black"/>
<rect id="table 1" x="0.5" y="0.5" width="67" height="63" fill="current" stroke="black"/>
<path id="Table 1" d="M14.5795 24.2102V23.2727H21.125V24.2102H18.3807V32H17.3239V24.2102H14.5795ZM23.6552 32.1534C23.2404 32.1534 22.864 32.0753 22.5259 31.919C22.1879 31.7599 21.9194 31.5312 21.7205 31.233C21.5217 30.9318 21.4222 30.5682 21.4222 30.142C21.4222 29.767 21.4961 29.4631 21.6438 29.2301C21.7915 28.9943 21.989 28.8097 22.2362 28.6761C22.4833 28.5426 22.756 28.4432 23.0543 28.3778C23.3555 28.3097 23.658 28.2557 23.962 28.2159C24.3597 28.1648 24.6822 28.1264 24.9293 28.1009C25.1793 28.0724 25.3612 28.0256 25.4748 27.9602C25.5913 27.8949 25.6495 27.7812 25.6495 27.6193V27.5852C25.6495 27.1648 25.5344 26.8381 25.3043 26.6051C25.0771 26.3722 24.7319 26.2557 24.2688 26.2557C23.7887 26.2557 23.4123 26.3608 23.1396 26.571C22.8668 26.7812 22.6751 27.0057 22.5643 27.2443L21.6097 26.9034C21.7802 26.5057 22.0075 26.196 22.2915 25.9744C22.5785 25.75 22.891 25.5937 23.229 25.5057C23.57 25.4148 23.9052 25.3693 24.2347 25.3693C24.445 25.3693 24.6864 25.3949 24.9592 25.446C25.2347 25.4943 25.5004 25.5952 25.756 25.7486C26.0146 25.902 26.229 26.1335 26.3995 26.4432C26.57 26.7528 26.6552 27.1676 26.6552 27.6875V32H25.6495V31.1136H25.5984C25.5302 31.2557 25.4165 31.4077 25.2575 31.5696C25.0984 31.7315 24.8867 31.8693 24.6225 31.983C24.3583 32.0966 24.0359 32.1534 23.6552 32.1534ZM23.8086 31.25C24.2063 31.25 24.5415 31.1719 24.8143 31.0156C25.0898 30.8594 25.2972 30.6577 25.4364 30.4105C25.5785 30.1634 25.6495 29.9034 25.6495 29.6307V28.7102C25.6069 28.7614 25.5131 28.8082 25.3683 28.8509C25.2262 28.8906 25.0614 28.9261 24.8739 28.9574C24.6893 28.9858 24.5089 29.0114 24.3327 29.0341C24.1594 29.054 24.0188 29.071 23.9109 29.0852C23.6495 29.1193 23.4052 29.1747 23.1779 29.2514C22.9535 29.3253 22.7717 29.4375 22.6325 29.5881C22.4961 29.7358 22.4279 29.9375 22.4279 30.1932C22.4279 30.5426 22.5572 30.8068 22.8157 30.9858C23.0771 31.1619 23.408 31.25 23.8086 31.25ZM28.6271 32V23.2727H29.6328V26.4943H29.718C29.7919 26.3807 29.8942 26.2358 30.0249 26.0597C30.1584 25.8807 30.3487 25.7216 30.5959 25.5824C30.8459 25.4403 31.1839 25.3693 31.6101 25.3693C32.1612 25.3693 32.647 25.5071 33.0675 25.7827C33.4879 26.0582 33.8161 26.4489 34.0518 26.9545C34.2876 27.4602 34.4055 28.0568 34.4055 28.7443C34.4055 29.4375 34.2876 30.0384 34.0518 30.5469C33.8161 31.0526 33.4893 31.4446 33.0717 31.723C32.6541 31.9986 32.1726 32.1364 31.6271 32.1364C31.2067 32.1364 30.87 32.0668 30.6172 31.9276C30.3643 31.7855 30.1697 31.625 30.0334 31.446C29.897 31.2642 29.7919 31.1136 29.718 30.9943H29.5987V32H28.6271ZM29.6158 28.7273C29.6158 29.2216 29.6882 29.6577 29.8331 30.0355C29.978 30.4105 30.1896 30.7045 30.468 30.9176C30.7464 31.1278 31.0874 31.233 31.4908 31.233C31.9112 31.233 32.2621 31.1222 32.5433 30.9006C32.8274 30.6761 33.0405 30.375 33.1825 29.9972C33.3274 29.6165 33.3999 29.1932 33.3999 28.7273C33.3999 28.267 33.3288 27.8523 33.1868 27.483C33.0476 27.1108 32.8359 26.8168 32.5518 26.6009C32.2706 26.3821 31.9169 26.2727 31.4908 26.2727C31.0817 26.2727 30.7379 26.3764 30.4595 26.5838C30.1811 26.7884 29.9709 27.0753 29.8288 27.4446C29.6868 27.8111 29.6158 28.2386 29.6158 28.7273ZM36.9496 23.2727V32H35.9439V23.2727H36.9496ZM41.5359 32.1364C40.9052 32.1364 40.3612 31.9972 39.9038 31.7188C39.4492 31.4375 39.0984 31.0455 38.8512 30.5426C38.6069 30.0369 38.4847 29.4489 38.4847 28.7784C38.4847 28.108 38.6069 27.517 38.8512 27.0057C39.0984 26.4915 39.4421 26.0909 39.8825 25.804C40.3256 25.5142 40.8427 25.3693 41.4336 25.3693C41.7745 25.3693 42.1112 25.4261 42.4435 25.5398C42.7759 25.6534 43.0785 25.8381 43.3512 26.0938C43.6239 26.3466 43.8413 26.6818 44.0032 27.0994C44.1651 27.517 44.2461 28.0312 44.2461 28.642V29.0682H39.2006V28.1989H43.2234C43.2234 27.8295 43.1495 27.5 43.0018 27.2102C42.8569 26.9205 42.6495 26.6918 42.3796 26.5241C42.1126 26.3565 41.7972 26.2727 41.4336 26.2727C41.033 26.2727 40.6864 26.3722 40.3938 26.571C40.104 26.767 39.881 27.0227 39.7248 27.3381C39.5685 27.6534 39.4904 27.9915 39.4904 28.3523V28.9318C39.4904 29.4261 39.5756 29.8452 39.7461 30.1889C39.9194 30.5298 40.1594 30.7898 40.4663 30.9688C40.7731 31.1449 41.1296 31.233 41.5359 31.233C41.8001 31.233 42.0387 31.196 42.2518 31.1222C42.4677 31.0455 42.6538 30.9318 42.81 30.7812C42.9663 30.6278 43.087 30.4375 43.1722 30.2102L44.1438 30.483C44.0415 30.8125 43.8697 31.1023 43.6282 31.3523C43.3867 31.5994 43.0884 31.7926 42.7333 31.9318C42.3782 32.0682 41.979 32.1364 41.5359 32.1364ZM52.2021 23.2727V32H51.1452V24.3807H51.0941L48.9634 25.7955V24.7216L51.1452 23.2727H52.2021Z" fill="black"/>
<rect id="table 3" x="0.5" y="88.5" width="67" height="63" fill="#D9D9D9" stroke="black"/>
<path id="Table 3" d="M14.5795 117.21V116.273H21.125V117.21H18.3807V125H17.3239V117.21H14.5795ZM23.6552 125.153C23.2404 125.153 22.864 125.075 22.5259 124.919C22.1879 124.76 21.9194 124.531 21.7205 124.233C21.5217 123.932 21.4222 123.568 21.4222 123.142C21.4222 122.767 21.4961 122.463 21.6438 122.23C21.7915 121.994 21.989 121.81 22.2362 121.676C22.4833 121.543 22.756 121.443 23.0543 121.378C23.3555 121.31 23.658 121.256 23.962 121.216C24.3597 121.165 24.6822 121.126 24.9293 121.101C25.1793 121.072 25.3612 121.026 25.4748 120.96C25.5913 120.895 25.6495 120.781 25.6495 120.619V120.585C25.6495 120.165 25.5344 119.838 25.3043 119.605C25.0771 119.372 24.7319 119.256 24.2688 119.256C23.7887 119.256 23.4123 119.361 23.1396 119.571C22.8668 119.781 22.6751 120.006 22.5643 120.244L21.6097 119.903C21.7802 119.506 22.0075 119.196 22.2915 118.974C22.5785 118.75 22.891 118.594 23.229 118.506C23.57 118.415 23.9052 118.369 24.2347 118.369C24.445 118.369 24.6864 118.395 24.9592 118.446C25.2347 118.494 25.5004 118.595 25.756 118.749C26.0146 118.902 26.229 119.134 26.3995 119.443C26.57 119.753 26.6552 120.168 26.6552 120.688V125H25.6495V124.114H25.5984C25.5302 124.256 25.4165 124.408 25.2575 124.57C25.0984 124.732 24.8867 124.869 24.6225 124.983C24.3583 125.097 24.0359 125.153 23.6552 125.153ZM23.8086 124.25C24.2063 124.25 24.5415 124.172 24.8143 124.016C25.0898 123.859 25.2972 123.658 25.4364 123.411C25.5785 123.163 25.6495 122.903 25.6495 122.631V121.71C25.6069 121.761 25.5131 121.808 25.3683 121.851C25.2262 121.891 25.0614 121.926 24.8739 121.957C24.6893 121.986 24.5089 122.011 24.3327 122.034C24.1594 122.054 24.0188 122.071 23.9109 122.085C23.6495 122.119 23.4052 122.175 23.1779 122.251C22.9535 122.325 22.7717 122.437 22.6325 122.588C22.4961 122.736 22.4279 122.937 22.4279 123.193C22.4279 123.543 22.5572 123.807 22.8157 123.986C23.0771 124.162 23.408 124.25 23.8086 124.25ZM28.6271 125V116.273H29.6328V119.494H29.718C29.7919 119.381 29.8942 119.236 30.0249 119.06C30.1584 118.881 30.3487 118.722 30.5959 118.582C30.8459 118.44 31.1839 118.369 31.6101 118.369C32.1612 118.369 32.647 118.507 33.0675 118.783C33.4879 119.058 33.8161 119.449 34.0518 119.955C34.2876 120.46 34.4055 121.057 34.4055 121.744C34.4055 122.438 34.2876 123.038 34.0518 123.547C33.8161 124.053 33.4893 124.445 33.0717 124.723C32.6541 124.999 32.1726 125.136 31.6271 125.136C31.2067 125.136 30.87 125.067 30.6172 124.928C30.3643 124.786 30.1697 124.625 30.0334 124.446C29.897 124.264 29.7919 124.114 29.718 123.994H29.5987V125H28.6271ZM29.6158 121.727C29.6158 122.222 29.6882 122.658 29.8331 123.036C29.978 123.411 30.1896 123.705 30.468 123.918C30.7464 124.128 31.0874 124.233 31.4908 124.233C31.9112 124.233 32.2621 124.122 32.5433 123.901C32.8274 123.676 33.0405 123.375 33.1825 122.997C33.3274 122.616 33.3999 122.193 33.3999 121.727C33.3999 121.267 33.3288 120.852 33.1868 120.483C33.0476 120.111 32.8359 119.817 32.5518 119.601C32.2706 119.382 31.9169 119.273 31.4908 119.273C31.0817 119.273 30.7379 119.376 30.4595 119.584C30.1811 119.788 29.9709 120.075 29.8288 120.445C29.6868 120.811 29.6158 121.239 29.6158 121.727ZM36.9496 116.273V125H35.9439V116.273H36.9496ZM41.5359 125.136C40.9052 125.136 40.3612 124.997 39.9038 124.719C39.4492 124.438 39.0984 124.045 38.8512 123.543C38.6069 123.037 38.4847 122.449 38.4847 121.778C38.4847 121.108 38.6069 120.517 38.8512 120.006C39.0984 119.491 39.4421 119.091 39.8825 118.804C40.3256 118.514 40.8427 118.369 41.4336 118.369C41.7745 118.369 42.1112 118.426 42.4435 118.54C42.7759 118.653 43.0785 118.838 43.3512 119.094C43.6239 119.347 43.8413 119.682 44.0032 120.099C44.1651 120.517 44.2461 121.031 44.2461 121.642V122.068H39.2006V121.199H43.2234C43.2234 120.83 43.1495 120.5 43.0018 120.21C42.8569 119.92 42.6495 119.692 42.3796 119.524C42.1126 119.357 41.7972 119.273 41.4336 119.273C41.033 119.273 40.6864 119.372 40.3938 119.571C40.104 119.767 39.881 120.023 39.7248 120.338C39.5685 120.653 39.4904 120.991 39.4904 121.352V121.932C39.4904 122.426 39.5756 122.845 39.7461 123.189C39.9194 123.53 40.1594 123.79 40.4663 123.969C40.7731 124.145 41.1296 124.233 41.5359 124.233C41.8001 124.233 42.0387 124.196 42.2518 124.122C42.4677 124.045 42.6538 123.932 42.81 123.781C42.9663 123.628 43.087 123.437 43.1722 123.21L44.1438 123.483C44.0415 123.812 43.8697 124.102 43.6282 124.352C43.3867 124.599 43.0884 124.793 42.7333 124.932C42.3782 125.068 41.979 125.136 41.5359 125.136ZM52.0827 125.119C51.5202 125.119 51.0188 125.023 50.5785 124.83C50.141 124.636 49.793 124.368 49.5344 124.024C49.2788 123.678 49.1396 123.276 49.1168 122.818H50.1907C50.2134 123.099 50.31 123.342 50.4805 123.547C50.6509 123.749 50.8739 123.905 51.1495 124.016C51.4251 124.126 51.7305 124.182 52.0657 124.182C52.4407 124.182 52.7731 124.116 53.0629 123.986C53.3526 123.855 53.5799 123.673 53.7447 123.44C53.9094 123.207 53.9918 122.938 53.9918 122.631C53.9918 122.31 53.9123 122.027 53.7532 121.783C53.5941 121.536 53.3612 121.342 53.0543 121.203C52.7475 121.064 52.3725 120.994 51.9293 120.994H51.2305V120.057H51.9293C52.2759 120.057 52.5799 119.994 52.8413 119.869C53.1055 119.744 53.3114 119.568 53.4592 119.341C53.6097 119.114 53.685 118.847 53.685 118.54C53.685 118.244 53.6197 117.987 53.489 117.768C53.3583 117.55 53.1737 117.379 52.935 117.257C52.6992 117.135 52.4208 117.074 52.0998 117.074C51.7987 117.074 51.5146 117.129 51.2475 117.24C50.9833 117.348 50.7674 117.506 50.5998 117.713C50.4322 117.918 50.3413 118.165 50.3271 118.455H49.3043C49.3214 117.997 49.4592 117.597 49.7177 117.253C49.9762 116.906 50.3143 116.636 50.7319 116.443C51.1523 116.25 51.614 116.153 52.1168 116.153C52.6566 116.153 53.1197 116.263 53.506 116.482C53.8924 116.697 54.1893 116.983 54.3967 117.338C54.604 117.693 54.7077 118.077 54.7077 118.489C54.7077 118.98 54.5785 119.399 54.32 119.746C54.0643 120.092 53.7163 120.332 53.2759 120.466V120.534C53.8271 120.625 54.2575 120.859 54.5671 121.237C54.8768 121.612 55.0316 122.077 55.0316 122.631C55.0316 123.105 54.9023 123.531 54.6438 123.909C54.3881 124.284 54.0387 124.58 53.5955 124.795C53.1523 125.011 52.6481 125.119 52.0827 125.119Z" fill="black"/>
<path id="Table 4" d="M104.58 117.21V116.273H111.125V117.21H108.381V125H107.324V117.21H104.58ZM113.655 125.153C113.24 125.153 112.864 125.075 112.526 124.919C112.188 124.76 111.919 124.531 111.721 124.233C111.522 123.932 111.422 123.568 111.422 123.142C111.422 122.767 111.496 122.463 111.644 122.23C111.792 121.994 111.989 121.81 112.236 121.676C112.483 121.543 112.756 121.443 113.054 121.378C113.355 121.31 113.658 121.256 113.962 121.216C114.36 121.165 114.682 121.126 114.929 121.101C115.179 121.072 115.361 121.026 115.475 120.96C115.591 120.895 115.65 120.781 115.65 120.619V120.585C115.65 120.165 115.534 119.838 115.304 119.605C115.077 119.372 114.732 119.256 114.269 119.256C113.789 119.256 113.412 119.361 113.14 119.571C112.867 119.781 112.675 120.006 112.564 120.244L111.61 119.903C111.78 119.506 112.007 119.196 112.292 118.974C112.578 118.75 112.891 118.594 113.229 118.506C113.57 118.415 113.905 118.369 114.235 118.369C114.445 118.369 114.686 118.395 114.959 118.446C115.235 118.494 115.5 118.595 115.756 118.749C116.015 118.902 116.229 119.134 116.4 119.443C116.57 119.753 116.655 120.168 116.655 120.688V125H115.65V124.114H115.598C115.53 124.256 115.417 124.408 115.257 124.57C115.098 124.732 114.887 124.869 114.623 124.983C114.358 125.097 114.036 125.153 113.655 125.153ZM113.809 124.25C114.206 124.25 114.542 124.172 114.814 124.016C115.09 123.859 115.297 123.658 115.436 123.411C115.578 123.163 115.65 122.903 115.65 122.631V121.71C115.607 121.761 115.513 121.808 115.368 121.851C115.226 121.891 115.061 121.926 114.874 121.957C114.689 121.986 114.509 122.011 114.333 122.034C114.159 122.054 114.019 122.071 113.911 122.085C113.65 122.119 113.405 122.175 113.178 122.251C112.953 122.325 112.772 122.437 112.632 122.588C112.496 122.736 112.428 122.937 112.428 123.193C112.428 123.543 112.557 123.807 112.816 123.986C113.077 124.162 113.408 124.25 113.809 124.25ZM118.627 125V116.273H119.633V119.494H119.718C119.792 119.381 119.894 119.236 120.025 119.06C120.158 118.881 120.349 118.722 120.596 118.582C120.846 118.44 121.184 118.369 121.61 118.369C122.161 118.369 122.647 118.507 123.067 118.783C123.488 119.058 123.816 119.449 124.052 119.955C124.288 120.46 124.406 121.057 124.406 121.744C124.406 122.438 124.288 123.038 124.052 123.547C123.816 124.053 123.489 124.445 123.072 124.723C122.654 124.999 122.173 125.136 121.627 125.136C121.207 125.136 120.87 125.067 120.617 124.928C120.364 124.786 120.17 124.625 120.033 124.446C119.897 124.264 119.792 124.114 119.718 123.994H119.599V125H118.627ZM119.616 121.727C119.616 122.222 119.688 122.658 119.833 123.036C119.978 123.411 120.19 123.705 120.468 123.918C120.746 124.128 121.087 124.233 121.491 124.233C121.911 124.233 122.262 124.122 122.543 123.901C122.827 123.676 123.04 123.375 123.183 122.997C123.327 122.616 123.4 122.193 123.4 121.727C123.4 121.267 123.329 120.852 123.187 120.483C123.048 120.111 122.836 119.817 122.552 119.601C122.271 119.382 121.917 119.273 121.491 119.273C121.082 119.273 120.738 119.376 120.46 119.584C120.181 119.788 119.971 120.075 119.829 120.445C119.687 120.811 119.616 121.239 119.616 121.727ZM126.95 116.273V125H125.944V116.273H126.95ZM131.536 125.136C130.905 125.136 130.361 124.997 129.904 124.719C129.449 124.438 129.098 124.045 128.851 123.543C128.607 123.037 128.485 122.449 128.485 121.778C128.485 121.108 128.607 120.517 128.851 120.006C129.098 119.491 129.442 119.091 129.882 118.804C130.326 118.514 130.843 118.369 131.434 118.369C131.775 118.369 132.111 118.426 132.444 118.54C132.776 118.653 133.078 118.838 133.351 119.094C133.624 119.347 133.841 119.682 134.003 120.099C134.165 120.517 134.246 121.031 134.246 121.642V122.068H129.201V121.199H133.223C133.223 120.83 133.15 120.5 133.002 120.21C132.857 119.92 132.65 119.692 132.38 119.524C132.113 119.357 131.797 119.273 131.434 119.273C131.033 119.273 130.686 119.372 130.394 119.571C130.104 119.767 129.881 120.023 129.725 120.338C129.569 120.653 129.49 120.991 129.49 121.352V121.932C129.49 122.426 129.576 122.845 129.746 123.189C129.919 123.53 130.159 123.79 130.466 123.969C130.773 124.145 131.13 124.233 131.536 124.233C131.8 124.233 132.039 124.196 132.252 124.122C132.468 124.045 132.654 123.932 132.81 123.781C132.966 123.628 133.087 123.437 133.172 123.21L134.144 123.483C134.042 123.812 133.87 124.102 133.628 124.352C133.387 124.599 133.088 124.793 132.733 124.932C132.378 125.068 131.979 125.136 131.536 125.136ZM138.929 123.21V122.341L142.765 116.273H143.395V117.619H142.969L140.071 122.205V122.273H145.236V123.21H138.929ZM143.037 125V122.946V122.541V116.273H144.043V125H143.037Z" fill="black"/>
<g id="Group 1">
<rect id="table 2" x="89.5" y="0.5" width="67" height="63" fill="#D9D9D9" stroke="black"/>
<path id="Table2" d="M104.58 24.2102V23.2727H111.125V24.2102H108.381V32H107.324V24.2102H104.58ZM113.655 32.1534C113.24 32.1534 112.864 32.0753 112.526 31.919C112.188 31.7599 111.919 31.5312 111.721 31.233C111.522 30.9318 111.422 30.5682 111.422 30.142C111.422 29.767 111.496 29.4631 111.644 29.2301C111.792 28.9943 111.989 28.8097 112.236 28.6761C112.483 28.5426 112.756 28.4432 113.054 28.3778C113.355 28.3097 113.658 28.2557 113.962 28.2159C114.36 28.1648 114.682 28.1264 114.929 28.1009C115.179 28.0724 115.361 28.0256 115.475 27.9602C115.591 27.8949 115.65 27.7812 115.65 27.6193V27.5852C115.65 27.1648 115.534 26.8381 115.304 26.6051C115.077 26.3722 114.732 26.2557 114.269 26.2557C113.789 26.2557 113.412 26.3608 113.14 26.571C112.867 26.7812 112.675 27.0057 112.564 27.2443L111.61 26.9034C111.78 26.5057 112.007 26.196 112.292 25.9744C112.578 25.75 112.891 25.5937 113.229 25.5057C113.57 25.4148 113.905 25.3693 114.235 25.3693C114.445 25.3693 114.686 25.3949 114.959 25.446C115.235 25.4943 115.5 25.5952 115.756 25.7486C116.015 25.902 116.229 26.1335 116.4 26.4432C116.57 26.7528 116.655 27.1676 116.655 27.6875V32H115.65V31.1136H115.598C115.53 31.2557 115.417 31.4077 115.257 31.5696C115.098 31.7315 114.887 31.8693 114.623 31.983C114.358 32.0966 114.036 32.1534 113.655 32.1534ZM113.809 31.25C114.206 31.25 114.542 31.1719 114.814 31.0156C115.09 30.8594 115.297 30.6577 115.436 30.4105C115.578 30.1634 115.65 29.9034 115.65 29.6307V28.7102C115.607 28.7614 115.513 28.8082 115.368 28.8509C115.226 28.8906 115.061 28.9261 114.874 28.9574C114.689 28.9858 114.509 29.0114 114.333 29.0341C114.159 29.054 114.019 29.071 113.911 29.0852C113.65 29.1193 113.405 29.1747 113.178 29.2514C112.953 29.3253 112.772 29.4375 112.632 29.5881C112.496 29.7358 112.428 29.9375 112.428 30.1932C112.428 30.5426 112.557 30.8068 112.816 30.9858C113.077 31.1619 113.408 31.25 113.809 31.25ZM118.627 32V23.2727H119.633V26.4943H119.718C119.792 26.3807 119.894 26.2358 120.025 26.0597C120.158 25.8807 120.349 25.7216 120.596 25.5824C120.846 25.4403 121.184 25.3693 121.61 25.3693C122.161 25.3693 122.647 25.5071 123.067 25.7827C123.488 26.0582 123.816 26.4489 124.052 26.9545C124.288 27.4602 124.406 28.0568 124.406 28.7443C124.406 29.4375 124.288 30.0384 124.052 30.5469C123.816 31.0526 123.489 31.4446 123.072 31.723C122.654 31.9986 122.173 32.1364 121.627 32.1364C121.207 32.1364 120.87 32.0668 120.617 31.9276C120.364 31.7855 120.17 31.625 120.033 31.446C119.897 31.2642 119.792 31.1136 119.718 30.9943H119.599V32H118.627ZM119.616 28.7273C119.616 29.2216 119.688 29.6577 119.833 30.0355C119.978 30.4105 120.19 30.7045 120.468 30.9176C120.746 31.1278 121.087 31.233 121.491 31.233C121.911 31.233 122.262 31.1222 122.543 30.9006C122.827 30.6761 123.04 30.375 123.183 29.9972C123.327 29.6165 123.4 29.1932 123.4 28.7273C123.4 28.267 123.329 27.8523 123.187 27.483C123.048 27.1108 122.836 26.8168 122.552 26.6009C122.271 26.3821 121.917 26.2727 121.491 26.2727C121.082 26.2727 120.738 26.3764 120.46 26.5838C120.181 26.7884 119.971 27.0753 119.829 27.4446C119.687 27.8111 119.616 28.2386 119.616 28.7273ZM126.95 23.2727V32H125.944V23.2727H126.95ZM131.536 32.1364C130.905 32.1364 130.361 31.9972 129.904 31.7188C129.449 31.4375 129.098 31.0455 128.851 30.5426C128.607 30.0369 128.485 29.4489 128.485 28.7784C128.485 28.108 128.607 27.517 128.851 27.0057C129.098 26.4915 129.442 26.0909 129.882 25.804C130.326 25.5142 130.843 25.3693 131.434 25.3693C131.775 25.3693 132.111 25.4261 132.444 25.5398C132.776 25.6534 133.078 25.8381 133.351 26.0938C133.624 26.3466 133.841 26.6818 134.003 27.0994C134.165 27.517 134.246 28.0312 134.246 28.642V29.0682H129.201V28.1989H133.223C133.223 27.8295 133.15 27.5 133.002 27.2102C132.857 26.9205 132.65 26.6918 132.38 26.5241C132.113 26.3565 131.797 26.2727 131.434 26.2727C131.033 26.2727 130.686 26.3722 130.394 26.571C130.104 26.767 129.881 27.0227 129.725 27.3381C129.569 27.6534 129.49 27.9915 129.49 28.3523V28.9318C129.49 29.4261 129.576 29.8452 129.746 30.1889C129.919 30.5298 130.159 30.7898 130.466 30.9688C130.773 31.1449 131.13 31.233 131.536 31.233C131.8 31.233 132.039 31.196 132.252 31.1222C132.468 31.0455 132.654 30.9318 132.81 30.7812C132.966 30.6278 133.087 30.4375 133.172 30.2102L134.144 30.483C134.042 30.8125 133.87 31.1023 133.628 31.3523C133.387 31.5994 133.088 31.7926 132.733 31.9318C132.378 32.0682 131.979 32.1364 131.536 32.1364ZM135.759 32V31.233L138.64 28.0795C138.978 27.7102 139.256 27.3892 139.475 27.1165C139.694 26.8409 139.855 26.5824 139.961 26.3409C140.069 26.0966 140.123 25.8409 140.123 25.5739C140.123 25.267 140.049 25.0014 139.901 24.777C139.756 24.5526 139.557 24.3793 139.304 24.2571C139.051 24.1349 138.767 24.0739 138.452 24.0739C138.117 24.0739 137.824 24.1435 137.574 24.2827C137.327 24.419 137.135 24.6108 136.999 24.858C136.865 25.1051 136.799 25.3949 136.799 25.7273H135.793C135.793 25.2159 135.911 24.767 136.147 24.3807C136.382 23.9943 136.703 23.6932 137.11 23.4773C137.519 23.2614 137.978 23.1534 138.486 23.1534C138.998 23.1534 139.451 23.2614 139.846 23.4773C140.24 23.6932 140.55 23.9844 140.775 24.3509C140.999 24.7173 141.111 25.125 141.111 25.5739C141.111 25.8949 141.053 26.2088 140.936 26.5156C140.823 26.8196 140.624 27.1591 140.34 27.5341C140.059 27.9062 139.668 28.3608 139.168 28.8977L137.208 30.9943V31.0625H141.265V32H135.759Z" fill="black"/>
</g>
</g>
</svg>
